<svg width="32" height="32" fill="none" xmlns="http://www.w3.org/2000/svg" id="svg2044001140_560"><path fill-rule="evenodd" clip-rule="evenodd" d="M4 4h12v2H6v10H4V4Z" fill="#fff"></path><path fill-rule="evenodd" clip-rule="evenodd" d="M15 4h13v1a12.001 12.001 0 0 1-12 12h-1V4Zm2 2v8.95A10 10 0 0 0 25.95 6H17Z" fill="#fff"></path><path fill-rule="evenodd" clip-rule="evenodd" d="M15 25.95V16h2v12h-1A12 12 0 0 1 4 16h2a10 10 0 0 0 9 9.95Z" fill="#fff"></path><path fill-rule="evenodd" clip-rule="evenodd" d="M28 15H15v1a12 12 0 0 0 12 12h1V15Zm-2 2v8.95A10 10 0 0 1 17.05 17H26Z" fill="#fff"></path></svg>
